{
  "asset": {
    "version": "2.0",
    "generator": "THREE.GLTFExporter"
  },
  "scenes": [
    {
      "nodes": [
        1,
        2,
        3,
        5
      ],
      "name": "Scene"
    }
  ],
  "scene": 0,
  "nodes": [
    {
      "matrix": [
        0.59285645667287,
        0,
        0,
        0,
        0,
        -0.2378263221404009,
        0.45491979628466145,
        0,
        0,
        0.03756692630527771,
        0.019639514460067738,
        0,
        -0.30009949478750664,
        -26973.843707214444,
        -52435.24318694187,
        1
      ],
      "mesh": 0
    },
    {
      "matrix": [
        -0.22415905436921824,
        0.12396866033324128,
        0.9666356550425188,
        0,
        0.7996107547650295,
        -0.5436210301015777,
        0.2551446971728005,
        0,
        0.5571134168267697,
        0.8301252597569124,
        0.022730901986517393,
        0,
        -0.22503992346586232,
        0.08829682736196881,
        0.1330333749435485,
        1
      ],
      "name": "model_647392034575.obj",
      "children": [
        0
      ]
    },
    {
      "matrix": [
        0.7510662587099762,
        0,
        0,
        0,
        0,
        0.7592783207373157,
        0,
        0,
        0,
        0,
        1,
        0,
        0,
        0,
        0,
        1
      ],
      "name": "model_063663400608.obj"
    },
    {
      "name": "model_063663400608.obj"
    },
    {
      "mesh": 1
    },
    {
      "name": "model_063663400608.obj",
      "children": [
        4
      ]
    }
  ],
  "bufferViews": [
    {
      "buffer": 0,
      "byteOffset": 0,
      "byteLength": 298584,
      "target": 34962,
      "byteStride": 12
    },
    {
      "buffer": 0,
      "byteOffset": 298584,
      "byteLength": 298584,
      "target": 34962,
      "byteStride": 12
    },
    {
      "buffer": 0,
      "byteOffset": 597168,
      "byteLength": 199056,
      "target": 34962,
      "byteStride": 8
    },
    {
      "buffer": 0,
      "byteOffset": 796224,
      "byteLength": 298584,
      "target": 34962,
      "byteStride": 12
    },
    {
      "buffer": 0,
      "byteOffset": 1094808,
      "byteLength": 298584,
      "target": 34962,
      "byteStride": 12
    },
    {
      "buffer": 0,
      "byteOffset": 1393392,
      "byteLength": 199056,
      "target": 34962,
      "byteStride": 8
    }
  ],
  "buffers": [
    {
      "byteLength": 1592448,
      "uri": "data:application/octet-stream;base64,"
    }
  ],
  "accessors": [
    {
      "bufferView": 0,
      "componentType": 5126,
      "count": 24882,
      "max": [
        0.6956949830055237,
        0.44009000062942505,
        0.23145698010921478
      ],
      "min": [
        -0.4492979943752289,
        -0.5463870167732239,
        -0.23145698010921478
      ],
      "type": "VEC3"
    },
    {
      "bufferView": 1,
      "componentType": 5126,
      "count": 24882,
      "max": [
        0.9999279975891113,
        0.9999990463256836,
        0.9999443292617798
      ],
      "min": [
        -0.9998201131820679,
        -0.9999351501464844,
        -0.9999443292617798
      ],
      "type": "VEC3"
    },
    {
      "bufferView": 2,
      "componentType": 5126,
      "count": 24882,
      "max": [
        0.8478475213050842,
        0.7200449705123901
      ],
      "min": [
        0.27535098791122437,
        0.22680650651454926
      ],
      "type": "VEC2"
    },
    {
      "bufferView": 3,
      "componentType": 5126,
      "count": 24882,
      "max": [
        0.6956949830055237,
        0.44009000062942505,
        0.23145698010921478
      ],
      "min": [
        -0.4492979943752289,
        -0.5463870167732239,
        -0.23145698010921478
      ],
      "type": "VEC3"
    },
    {
      "bufferView": 4,
      "componentType": 5126,
      "count": 24882,
      "max": [
        0.9999279975891113,
        0.9999990463256836,
        0.9999443292617798
      ],
      "min": [
        -0.9998201131820679,
        -0.9999351501464844,
        -0.9999443292617798
      ],
      "type": "VEC3"
    },
    {
      "bufferView": 5,
      "componentType": 5126,
      "count": 24882,
      "max": [
        0.8478475213050842,
        0.7200449705123901
      ],
      "min": [
        0.27535098791122437,
        0.22680650651454926
      ],
      "type": "VEC2"
    }
  ],
  "materials": [
    {
      "pbrMetallicRoughness": {
        "metallicFactor": 0,
        "roughnessFactor": 0.9,
        "baseColorTexture": {
          "index": 0
        }
      },
      "extensions": {
        "KHR_materials_unlit": {}
      }
    }
  ],
  "meshes": [
    {
      "primitives": [
        {
          "mode": 4,
          "attributes": {
            "POSITION": 0,
            "NORMAL": 1,
            "TEXCOORD_0": 2
          }
        }
      ]
    },
    {
      "primitives": [
        {
          "mode": 4,
          "attributes": {
            "POSITION": 3,
            "NORMAL": 4,
            "TEXCOORD_0": 5
          },
          "material": 0
        }
      ]
    }
  ],
  "textures": [
    {
      "sampler": 0,
      "source": 0
    }
  ],
  "samplers": [
    {
      "magFilter": 9729,
      "minFilter": 9987
    }
  ],
  "images": [
    {
      "mimeType": "image/jpeg",
      "uri": "data:image/jpeg;base64,"
    }
  ],
  "extensionsUsed": [
    "KHR_materials_unlit"
  ]
}